<?xml version="1.0" ?><svg id="Snapchat" style="enable-background:new 0 0 62.278 64;" version="1.1" viewBox="0 0 62.278 64" xml:space="preserve" xmlns="http://www.w3.org/2000/svg" xmlns:xlink="http://www.w3.org/1999/xlink"><g><g id="XMLID_6_"><g><path d="M60.123,22.93c1.56,1.56,1.53,4.1-0.03,5.66l-4.25,4.24c-0.78,0.78-1.81,1.17-2.84,1.17l7,20     c-5,5-6.74-2.03-8.77,0c-2.03,2.03-6.89,2.71-9.58,3.83c-2.59,1.07-4.67,5.17-7.65,5.17h-2.77h-3c-2.98,0-5.06-4.1-7.66-5.17     c-2.68-1.12-7.31-0.8-9.34-2.83s-4,4-9-1l7-20c-1.02,0-2.05-0.39-2.82-1.17l-4.25-4.24c-1.55-1.56-1.55-4.1,0-5.66     c1.56-1.55,4.1-1.55,5.66,0l1.41,1.41V14c0,0,1-13,22-13s22,13,22,13v10.34l1.29-1.41C56.083,21.38,58.572,21.38,60.123,22.93z" style="fill:#FFD311;"/></g><g><path d="M31.233,63h2.77     c2.98,0,5.06-4.1,7.65-5.17c2.69-1.12,7.55-1.8,9.58-3.83c2.03-2.03,3.77,5,8.77,0l-7-20c1.03,0,2.06-0.39,2.84-1.17l4.25-4.24     c1.56-1.56,1.59-4.1,0.03-5.66c-1.55-1.55-4.04-1.55-5.6,0l-1.29,1.41V14c0,0-1-13-22-13s-22,13-22,13v10.34l-1.41-1.41     c-1.56-1.55-4.1-1.55-5.66,0c-1.55,1.56-1.55,4.1,0,5.66l4.25,4.24c0.77,0.78,1.8,1.17,2.82,1.17l-7,20c5,5,6.97-1.03,9,1     s6.66,1.71,9.34,2.83c2.6,1.07,4.68,5.17,7.66,5.17H31.233z" style="fill:none;stroke:#000000;stroke-width:2;stroke-linejoin:round;stroke-miterlimit:10;"/></g></g></g></svg>